# xmcd CD database file
#
# Track frame offsets:
#	150
#	16412
#	31250
#	47632
#	68975
#	87300
#	102177
#	117510
#	132870
#	150275
#
# Disc length: 2272 seconds
#
# Revision: 1
# Processed by: cddbd v1.5.2PL0 Copyright (c) Steve Scherf et al.
# Submitted via: CDex 1.51
#
DISCID=7808de0a
DTITLE=Boz Scaggs - Slow Dancer
DYEAR=1974
DGENRE=Rock
TTITLE0=You Make It So Hard (To Say No)
TTITLE1=Slow Dancer
TTITLE2=Angel Lady (Come Just In Time)
TTITLE3=There Is Someone Else
TTITLE4=Hercules
TTITLE5=Pain Of Love
TTITLE6=Sail On White Moon
TTITLE7=Let It Happen
TTITLE8=I Got Your Number
TTITLE9=Take It For Granted
EXTD=YEAR: 1974
EXTT0=
EXTT1=
EXTT2=
EXTT3=
EXTT4=
EXTT5=
EXTT6=
EXTT7=
EXTT8=
EXTT9=
PLAYORDER=
